<svg width="150" height="156" viewBox="0 0 150 156" fill="none" xmlns="http://www.w3.org/2000/svg">
<g clip-path="url(#clip0)">
<path d="M0 7.35135C0 6.60502 0.605017 6 1.35135 6H101.786C128.414 6 150 27.5863 150 54.2143V63.5772C150 64.3236 149.395 64.9286 148.649 64.9286H119.208C118.462 64.9286 117.857 64.3236 117.857 63.5772V54.2143C117.857 45.3383 110.662 38.1429 101.786 38.1429H33.4942C32.7479 38.1429 32.1429 38.7479 32.1429 39.4942V149.292C32.1429 150.038 31.5361 150.646 30.7904 150.615C13.6656 149.906 0 135.799 0 118.5V7.35135Z" fill="black"/>
<path d="M60.2799 70.2857C59.5336 70.2857 58.9256 70.8925 58.9565 71.6382C59.6653 88.7629 73.7725 102.429 91.0714 102.429H112.5C115.459 102.429 117.857 104.827 117.857 107.786V149.292C117.857 150.038 118.464 150.646 119.21 150.615C136.334 149.906 150 135.799 150 118.5V107.786C150 87.075 133.211 70.2857 112.5 70.2857H60.2799Z" fill="black"/>
</g>
<defs>
<clipPath id="clip0">
<rect width="150" height="156" fill="white"/>
</clipPath>
</defs>
</svg>
