<?xml version="1.0" standalone="no"?>
<!DOCTYPE svg PUBLIC "-//W3C//DTD SVG 20010904//EN"
 "http://www.w3.org/TR/2001/REC-SVG-20010904/DTD/svg10.dtd">
<svg version="1.0" xmlns="http://www.w3.org/2000/svg"
 width="111.000000pt" height="111.000000pt" viewBox="0 0 111.000000 111.000000"
 preserveAspectRatio="xMidYMid meet">
<metadata>
Created by potrace 1.11, written by Peter Selinger 2001-2013
</metadata>
<g transform="translate(0.000000,111.000000) scale(0.100000,-0.100000)"
fill="#000000" stroke="none">
<path d="M4 1087 c-3 -8 -4 -212 -2 -453 3 -407 4 -442 22 -474 38 -71 125
-130 193 -130 20 0 21 6 21 398 0 218 1 405 1 415 1 16 21 17 271 17 341 0
348 -3 360 -135 l5 -60 115 0 115 0 3 58 c8 146 -70 275 -208 344 l-55 28
-418 3 c-350 3 -418 1 -423 -11z"/>
<path d="M478 622 c-34 -3 -38 -6 -38 -30 1 -36 31 -100 66 -136 49 -51 106
-69 233 -72 62 -1 118 -7 123 -12 6 -6 10 -79 9 -177 l-1 -167 37 4 c72 9 130
49 171 118 24 40 27 57 29 143 3 120 -17 181 -78 243 -73 74 -110 84 -326 87
-104 1 -205 1 -225 -1z"/>
</g>
</svg>
