<?xml version="1.0" encoding="UTF-8" standalone="no"?>
<!DOCTYPE svg PUBLIC "-//W3C//DTD SVG 1.1//EN" "http://www.w3.org/Graphics/SVG/1.1/DTD/svg11.dtd">
<svg width="100%" height="100%" viewBox="0 0 700 450" version="1.1" xmlns="http://www.w3.org/2000/svg" xmlns:xlink="http://www.w3.org/1999/xlink" xml:space="preserve" xmlns:serif="http://www.serif.com/" style="fill-rule:evenodd;clip-rule:evenodd;stroke-linejoin:round;stroke-miterlimit:2;">
    <g transform="matrix(1,0,0,1,-4350,-772)">
        <g id="riotjs-kawaii-logo" transform="matrix(0.793651,0,0,0.510204,4350,492.918)">
            <rect x="0" y="547" width="882" height="882" style="fill:none;"/>
            <g transform="matrix(0.928571,0,0,0.977778,-1.83068e-12,12.1556)">
                <g transform="matrix(1.35692,0,0,2.00455,-176.4,-980.464)">
                    <path d="M524.589,864.887C524.4,852.908 531.102,842.045 541.415,836.664C541.031,828.793 543.371,820.99 548.101,814.6C553.509,807.293 561.599,802.433 570.59,801.091L593.77,797.63C602.762,796.287 611.918,798.571 619.226,803.98C622.536,806.43 625.344,809.431 627.548,812.814C628.117,813.185 628.677,813.574 629.226,813.98C632.096,816.105 634.589,818.643 636.638,821.487C647.933,821.182 658.277,827.006 664.029,836.229C671.588,840.952 677.089,848.854 678.447,858.369C678.447,858.369 679.361,864.77 679.361,864.77C686.739,861.259 695.282,860.039 703.9,861.828C704.794,862.014 705.674,862.229 706.537,862.472C711.923,860.753 717.742,860.17 723.648,860.949C732.175,856.104 742.202,854.506 751.861,856.511L753.374,856.825C757.516,857.684 761.456,859.179 765.068,861.223C769.198,860.786 773.408,860.983 777.55,861.842L778.328,862.004C788.454,864.105 797.375,870 803.276,878.45C807.455,881.369 811.085,885.079 813.936,889.423C819.824,898.396 821.907,909.34 819.726,919.848C818.233,927.041 816.346,936.132 814.862,943.285C818.648,951.22 819.767,960.225 817.961,968.931L814.823,984.046C811.977,997.761 803.839,1009.8 792.175,1017.55L789.955,1019.03L789.224,1022.55C786.53,1035.53 773.828,1043.87 760.851,1041.17L757.212,1040.42C757.631,1042.33 758.052,1044.29 758.429,1046.05C760.631,1056.3 757.514,1066.65 750.678,1073.94C768.284,1092.51 771.631,1112.65 766.553,1129.88C759.782,1152.84 734.457,1174.22 694.586,1176.54C682.88,1177.21 672.172,1171.32 666.298,1161.88C664.605,1160.82 663.017,1159.61 661.556,1158.25C649.759,1176.43 633.498,1190.89 616.983,1198.87C616.856,1198.94 616.729,1199 616.601,1199.06C608.324,1202.88 598.839,1203.13 590.373,1199.74C583.907,1197.16 578.47,1192.63 574.767,1186.86C568.969,1183.13 564.425,1177.67 561.846,1171.17C561.72,1170.85 561.601,1170.53 561.489,1170.21C561.489,1170.21 561.487,1170.2 561.487,1170.2C549.291,1169.23 538.638,1162.74 532.033,1153.24C528.871,1151.04 526.043,1148.4 523.641,1145.39C514.533,1149.56 503.705,1148.28 495.819,1141.84C494.559,1140.83 492.84,1139.4 491.467,1138.26L491.463,1138.26C489.269,1136.43 487.405,1134.29 485.921,1131.92C485.887,1131.9 485.854,1131.87 485.821,1131.84C485.525,1131.61 485.203,1131.34 484.866,1131.07C478.997,1135.33 471.717,1137.3 464.425,1136.51L448.51,1134.79C443.086,1134.2 438.186,1131.97 434.298,1128.62C428.491,1127.88 423.124,1125.24 419.006,1121.15C416.903,1121.91 414.666,1122.4 412.333,1122.59L400.145,1123.54C393.206,1124.08 386.346,1121.77 381.15,1117.14C378.976,1115.2 377.171,1112.93 375.791,1110.43C374.14,1109.52 372.582,1108.42 371.15,1107.14C370.801,1106.83 370.46,1106.51 370.131,1106.18C368.704,1105.89 367.301,1105.49 365.938,1104.97C364.705,1106.34 363.559,1107.54 362.6,1108.44C358.021,1112.73 347.494,1120.5 340.819,1124.44C340.569,1124.59 340.316,1124.74 340.061,1124.87C331.629,1129.45 321.763,1129.04 313.958,1124.55C308.948,1139.83 295.54,1151.57 278.742,1153.78C268.219,1155.17 258.45,1149.76 253.721,1141.02C251.693,1139.92 249.828,1138.54 248.182,1136.93C246.75,1148.64 237.079,1158.04 224.792,1158.63C209.748,1159.35 195.997,1152.19 187.757,1140.66C177.931,1133.63 171.111,1122.53 169.946,1109.55L164.043,1043.83C163.573,1038.59 164.77,1033.58 167.197,1029.33C164.646,1027.53 162.319,1025.4 160.287,1022.96C159.456,1021.97 158.684,1020.93 157.972,1019.86L157.97,1019.86C155.115,1017.96 152.522,1015.64 150.287,1012.96C144.187,1005.65 141.244,996.21 142.103,986.725L158.465,806.112C159.324,796.627 163.916,787.873 171.23,781.774C178.545,775.675 187.982,772.731 197.467,773.59L226.532,776.223C230.835,776.613 234.988,777.771 238.808,779.602C244.775,778.853 250.887,778.609 257.098,778.913C286.72,780.366 312.886,793.985 330.989,814.691C337.54,820.417 343.365,826.938 348.32,834.094C356.336,829.045 365.76,825.999 375.906,825.687C394.241,825.124 410.769,833.614 421.185,847.112C429.631,853.631 436.147,862.559 439.68,872.9C454.342,863.776 471.645,858.503 490.169,858.503C502.299,858.503 513.905,860.765 524.589,864.887Z" style="fill:white;"/>
                </g>
                <g transform="matrix(1.35692,0,0,2.00455,-176.4,-980.464)">
                    <path d="M247.744,795.8C253.943,794.905 260.316,794.588 266.804,794.906C306.16,796.836 339.046,821.546 353.323,855.644C361.805,847.343 373.304,842.077 386.09,841.684C413.137,840.854 435.77,862.137 436.601,889.184C436.74,893.716 436.259,898.124 435.233,902.326C451.582,885.188 474.638,874.503 500.169,874.503C515.192,874.503 529.357,878.202 541.803,884.738L540.843,878.009C539.087,865.709 546.488,854.214 557.871,850.421L557.684,849.169C556.577,841.752 558.461,834.198 562.923,828.17C567.385,822.141 574.059,818.133 581.477,817.025L604.656,813.564C612.074,812.456 619.628,814.341 625.656,818.803C631.684,823.264 635.693,829.938 636.801,837.356L637.003,838.713L643.871,837.733C657.711,835.758 670.532,845.376 672.507,859.217L676.657,888.287C676.984,890.579 676.993,892.842 676.718,895.034C683.237,882.105 697.828,874.62 712.681,877.703C714.042,877.985 715.366,878.349 716.647,878.786C722.275,876.648 728.545,876.001 734.874,877.222C742.489,872.28 751.749,870.54 760.642,872.386L762.154,872.7C766.327,873.566 770.26,875.188 773.778,877.448C777.904,876.775 782.158,876.851 786.331,877.717L787.109,877.879C796.059,879.736 803.905,885.073 808.92,892.715C813.935,900.357 815.709,909.679 813.851,918.629C812.21,926.536 810.093,936.735 808.559,944.135C812.487,951.298 813.758,959.655 812.086,967.712L808.949,982.827C806.423,994.995 799.203,1005.68 788.853,1012.56L784.581,1015.4L783.349,1021.33C781.329,1031.06 771.802,1037.32 762.07,1035.3L753.997,1033.62C751.591,1033.12 749.399,1032.16 747.491,1030.86C748.97,1033.23 750.074,1035.89 750.703,1038.76C751.315,1041.5 751.99,1044.64 752.563,1047.31C754.747,1057.47 750.454,1067.77 742.078,1073.44C743.066,1074.62 744.156,1075.85 745.263,1076.97C761.964,1093.93 765.455,1112.38 760.798,1128.18C754.569,1149.31 730.916,1168.42 694.238,1170.55C681.499,1171.29 670.223,1162.38 667.988,1149.82C667.547,1147.37 667.05,1144.54 666.618,1142.08L666.617,1142.08C666.283,1140.17 666.172,1138.27 666.269,1136.41C655.733,1162.2 635.297,1183.36 614.372,1193.47C614.277,1193.52 614.181,1193.56 614.085,1193.61C607.305,1196.74 599.535,1196.94 592.6,1194.17C585.666,1191.4 580.177,1185.9 577.423,1178.95C577.329,1178.72 577.24,1178.48 577.155,1178.23C575.618,1173.82 573.833,1168.4 572.231,1163.48C569.803,1164.03 567.275,1164.33 564.679,1164.33C546.694,1164.33 531.978,1150.23 530.994,1132.48C528.496,1134.94 526.238,1136.74 524.649,1137.9C524.437,1138.05 524.222,1138.2 524.004,1138.35C516.468,1143.36 506.55,1142.87 499.595,1137.18C498.354,1136.18 496.655,1134.77 495.3,1133.64L495.297,1133.64C490.908,1130 488.226,1124.7 487.887,1119C487.885,1118.98 487.884,1118.96 487.883,1118.93C486.71,1120.97 485.225,1122.85 483.459,1124.48C478.493,1129.06 471.788,1131.27 465.07,1130.54L449.155,1128.82C444.336,1128.3 440.054,1126.1 436.885,1122.82C436.5,1122.81 436.114,1122.78 435.728,1122.74C429.946,1122.19 424.667,1119.22 421.202,1114.56L420.607,1113.76C418.041,1115.34 415.071,1116.35 411.865,1116.61L399.677,1117.56C394.368,1117.97 389.118,1116.2 385.143,1112.66C381.573,1109.48 379.307,1105.11 378.74,1100.4C373.78,1101.26 368.668,1100.22 364.434,1097.54C362.251,1100.14 360.097,1102.56 358.5,1104.06C354.143,1108.14 344.118,1115.53 337.766,1119.28C337.579,1119.39 337.389,1119.5 337.198,1119.6C327.74,1124.74 315.952,1121.77 310.047,1112.86C309.264,1130.57 295.844,1145.48 277.958,1147.83C267.361,1149.23 257.772,1141.53 256.817,1130.89L255.912,1120.81C250.676,1120.98 245.635,1120.03 241.029,1118.18L242.288,1132.2C243.243,1142.84 235.177,1152.12 224.503,1152.63C204.813,1153.58 187.702,1138.83 185.922,1119.02L180.019,1053.29C179.091,1042.95 186.719,1033.82 197.057,1032.89L208.499,1031.87L185.166,1029.75C177.266,1029.04 169.975,1025.21 164.895,1019.12C159.815,1013.03 157.363,1005.17 158.079,997.266L174.441,816.653C175.156,808.754 178.981,801.462 185.073,796.382C191.165,791.302 199.025,788.85 206.925,789.566L235.991,792.199C240.156,792.576 244.152,793.818 247.744,795.8Z" style="fill:rgb(237,24,70);stroke:rgb(237,24,70);stroke-width:4px;"/>
                </g>
                <g transform="matrix(1.35692,0,0,2.00455,-189.969,-1000.51)">
                    <path d="M247.744,795.8C253.943,794.905 260.316,794.588 266.804,794.906C306.16,796.836 339.046,821.546 353.323,855.644C361.805,847.343 373.304,842.077 386.09,841.684C413.137,840.854 435.77,862.137 436.601,889.184C436.74,893.716 436.259,898.124 435.233,902.326C451.582,885.188 474.638,874.503 500.169,874.503C515.192,874.503 529.357,878.202 541.803,884.738L540.843,878.009C539.087,865.709 546.488,854.214 557.871,850.421L557.684,849.169C556.577,841.752 558.461,834.198 562.923,828.17C567.385,822.141 574.059,818.133 581.477,817.025L604.656,813.564C612.074,812.456 619.628,814.341 625.656,818.803C631.684,823.264 635.693,829.938 636.801,837.356L637.003,838.713L643.871,837.733C657.711,835.758 670.532,845.376 672.507,859.217L676.657,888.287C676.984,890.579 676.993,892.842 676.718,895.034C683.237,882.105 697.828,874.62 712.681,877.703C714.042,877.985 715.366,878.349 716.647,878.786C722.275,876.648 728.545,876.001 734.874,877.222C742.489,872.28 751.749,870.54 760.642,872.386L762.154,872.7C766.327,873.566 770.26,875.188 773.778,877.448C777.904,876.775 782.158,876.851 786.331,877.717L787.109,877.879C796.059,879.736 803.905,885.073 808.92,892.715C813.935,900.357 815.709,909.679 813.851,918.629C812.21,926.536 810.093,936.735 808.559,944.135C812.487,951.298 813.758,959.655 812.086,967.712L808.949,982.827C806.423,994.995 799.203,1005.68 788.853,1012.56L784.581,1015.4L783.349,1021.33C781.329,1031.06 771.802,1037.32 762.07,1035.3L753.997,1033.62C751.591,1033.12 749.399,1032.16 747.491,1030.86C748.97,1033.23 750.074,1035.89 750.703,1038.76C751.315,1041.5 751.99,1044.64 752.563,1047.31C754.747,1057.47 750.454,1067.77 742.078,1073.44C743.066,1074.62 744.156,1075.85 745.263,1076.97C761.964,1093.93 765.455,1112.38 760.798,1128.18C754.569,1149.31 730.916,1168.42 694.238,1170.55C681.499,1171.29 670.223,1162.38 667.988,1149.82C667.547,1147.37 667.05,1144.54 666.618,1142.08L666.617,1142.08C666.283,1140.17 666.172,1138.27 666.269,1136.41C655.733,1162.2 635.297,1183.36 614.372,1193.47C614.277,1193.52 614.181,1193.56 614.085,1193.61C607.305,1196.74 599.535,1196.94 592.6,1194.17C585.666,1191.4 580.177,1185.9 577.423,1178.95C577.329,1178.72 577.24,1178.48 577.155,1178.23C575.618,1173.82 573.833,1168.4 572.231,1163.48C569.803,1164.03 567.275,1164.33 564.679,1164.33C546.694,1164.33 531.978,1150.23 530.994,1132.48C528.496,1134.94 526.238,1136.74 524.649,1137.9C524.437,1138.05 524.222,1138.2 524.004,1138.35C516.468,1143.36 506.55,1142.87 499.595,1137.18C498.354,1136.18 496.655,1134.77 495.3,1133.64L495.297,1133.64C490.908,1130 488.226,1124.7 487.887,1119C487.885,1118.98 487.884,1118.96 487.883,1118.93C486.71,1120.97 485.225,1122.85 483.459,1124.48C478.493,1129.06 471.788,1131.27 465.07,1130.54L449.155,1128.82C444.336,1128.3 440.054,1126.1 436.885,1122.82C436.5,1122.81 436.114,1122.78 435.728,1122.74C429.946,1122.19 424.667,1119.22 421.202,1114.56L420.607,1113.76C418.041,1115.34 415.071,1116.35 411.865,1116.61L399.677,1117.56C394.368,1117.97 389.118,1116.2 385.143,1112.66C381.573,1109.48 379.307,1105.11 378.74,1100.4C373.78,1101.26 368.668,1100.22 364.434,1097.54C362.251,1100.14 360.097,1102.56 358.5,1104.06C354.143,1108.14 344.118,1115.53 337.766,1119.28C337.579,1119.39 337.389,1119.5 337.198,1119.6C327.74,1124.74 315.952,1121.77 310.047,1112.86C309.264,1130.57 295.844,1145.48 277.958,1147.83C267.361,1149.23 257.772,1141.53 256.817,1130.89L255.912,1120.81C250.676,1120.98 245.635,1120.03 241.029,1118.18L242.288,1132.2C243.243,1142.84 235.177,1152.12 224.503,1152.63C204.813,1153.58 187.702,1138.83 185.922,1119.02L180.019,1053.29C179.091,1042.95 186.719,1033.82 197.057,1032.89L208.499,1031.87L185.166,1029.75C177.266,1029.04 169.975,1025.21 164.895,1019.12C159.815,1013.03 157.363,1005.17 158.079,997.266L174.441,816.653C175.156,808.754 178.981,801.462 185.073,796.382C191.165,791.302 199.025,788.85 206.925,789.566L235.991,792.199C240.156,792.576 244.152,793.818 247.744,795.8Z" style="fill:white;stroke:rgb(237,24,70);stroke-width:4px;"/>
                </g>
                <g transform="matrix(1.35692,0,0,2.00455,-189.969,-1000.51)">
                    <g transform="matrix(0.9988,0.0489708,-0.0489708,0.9988,40.1304,-11.1647)">
                        <path d="M589.05,892.18L575.465,894.804C571.497,895.57 567.659,892.974 566.893,889.006L561.325,860.174C560.559,856.206 563.154,852.368 567.123,851.602L580.429,849.032L576.712,830.431C576.178,827.757 576.728,824.98 578.241,822.711C579.754,820.443 582.106,818.868 584.78,818.334L607.762,813.742C610.436,813.207 613.213,813.757 615.482,815.27C617.75,816.783 619.325,819.135 619.859,821.809L623.632,840.69L647.999,835.984C651.967,835.218 655.805,837.813 656.571,841.781L662.139,870.614C662.905,874.582 660.31,878.42 656.342,879.186L632.253,883.838L637.363,909.414C639.954,922.379 649.178,932.777 661.286,937.09C665.574,938.621 668.173,942.978 667.483,947.479C666.586,954.777 665.244,964.979 664.246,972.534C663.853,975.243 662.322,977.656 660.038,979.164C657.754,980.672 654.934,981.133 652.288,980.431C623.013,972.344 600.286,948.413 594.216,918.035L589.05,892.18ZM239.572,969.626L238.134,1004.38C238.003,1007.54 236.624,1010.51 234.3,1012.65C231.976,1014.79 228.897,1015.92 225.74,1015.79L196.58,1014.58C193.424,1014.45 190.449,1013.07 188.309,1010.75C186.17,1008.43 185.041,1005.35 185.172,1002.19L192.669,820.992C192.8,817.835 194.179,814.86 196.503,812.72C198.828,810.581 201.907,809.452 205.063,809.583L234.223,810.79C237.379,810.92 240.355,812.299 242.494,814.623C242.686,814.832 242.87,815.047 243.046,815.267C250.288,813.141 257.95,812 265.876,812C310.581,812 346.876,848.295 346.876,893C346.876,915.279 337.862,935.47 323.284,950.12L343.701,993.743C345.635,997.875 343.865,1002.79 339.742,1004.74L307.941,1019.8C305.949,1020.74 303.664,1020.85 301.591,1020.1C299.518,1019.36 297.827,1017.81 296.893,1015.82L276.967,973.246C273.341,973.743 269.638,974 265.876,974C256.67,974 247.821,972.461 239.572,969.626ZM241.992,911.147C247.474,918.348 256.136,923 265.876,923C282.433,923 295.876,909.557 295.876,893C295.876,876.443 282.433,863 265.876,863C257.026,863 249.066,866.84 243.573,872.944L241.992,911.147ZM369.468,936.417C369.417,934.139 370.273,931.935 371.848,930.289C373.424,928.644 375.589,927.692 377.866,927.645L407.336,927.026C412.068,926.927 415.987,930.679 416.094,935.411L417.746,1008.5C417.797,1010.78 416.941,1012.99 415.365,1014.63C413.79,1016.28 411.625,1017.23 409.347,1017.28L379.878,1017.89C375.146,1017.99 371.227,1014.24 371.12,1009.51L369.468,936.417ZM503.74,880.052C543.292,878.113 576.978,908.65 578.918,948.202C580.857,987.755 550.32,1021.44 510.767,1023.38C471.215,1025.32 437.529,994.782 435.59,955.23C433.651,915.677 464.188,881.991 503.74,880.052ZM505.895,923.999C490.597,924.749 478.787,937.778 479.537,953.075C480.287,968.372 493.315,980.183 508.613,979.433C523.91,978.683 535.72,965.654 534.97,950.357C534.22,935.06 521.192,923.249 505.895,923.999ZM388.742,852.823C405.815,851.46 420.783,864.214 422.146,881.286C423.51,898.359 410.756,913.326 393.684,914.69C376.611,916.053 361.643,903.3 360.28,886.227C358.916,869.155 371.67,854.187 388.742,852.823Z" style="fill:rgb(237,24,70);"/>
                        <clipPath id="_clip1">
                            <path d="M589.05,892.18L575.465,894.804C571.497,895.57 567.659,892.974 566.893,889.006L561.325,860.174C560.559,856.206 563.154,852.368 567.123,851.602L580.429,849.032L576.712,830.431C576.178,827.757 576.728,824.98 578.241,822.711C579.754,820.443 582.106,818.868 584.78,818.334L607.762,813.742C610.436,813.207 613.213,813.757 615.482,815.27C617.75,816.783 619.325,819.135 619.859,821.809L623.632,840.69L647.999,835.984C651.967,835.218 655.805,837.813 656.571,841.781L662.139,870.614C662.905,874.582 660.31,878.42 656.342,879.186L632.253,883.838L637.363,909.414C639.954,922.379 649.178,932.777 661.286,937.09C665.574,938.621 668.173,942.978 667.483,947.479C666.586,954.777 665.244,964.979 664.246,972.534C663.853,975.243 662.322,977.656 660.038,979.164C657.754,980.672 654.934,981.133 652.288,980.431C623.013,972.344 600.286,948.413 594.216,918.035L589.05,892.18ZM239.572,969.626L238.134,1004.38C238.003,1007.54 236.624,1010.51 234.3,1012.65C231.976,1014.79 228.897,1015.92 225.74,1015.79L196.58,1014.58C193.424,1014.45 190.449,1013.07 188.309,1010.75C186.17,1008.43 185.041,1005.35 185.172,1002.19L192.669,820.992C192.8,817.835 194.179,814.86 196.503,812.72C198.828,810.581 201.907,809.452 205.063,809.583L234.223,810.79C237.379,810.92 240.355,812.299 242.494,814.623C242.686,814.832 242.87,815.047 243.046,815.267C250.288,813.141 257.95,812 265.876,812C310.581,812 346.876,848.295 346.876,893C346.876,915.279 337.862,935.47 323.284,950.12L343.701,993.743C345.635,997.875 343.865,1002.79 339.742,1004.74L307.941,1019.8C305.949,1020.74 303.664,1020.85 301.591,1020.1C299.518,1019.36 297.827,1017.81 296.893,1015.82L276.967,973.246C273.341,973.743 269.638,974 265.876,974C256.67,974 247.821,972.461 239.572,969.626ZM241.992,911.147C247.474,918.348 256.136,923 265.876,923C282.433,923 295.876,909.557 295.876,893C295.876,876.443 282.433,863 265.876,863C257.026,863 249.066,866.84 243.573,872.944L241.992,911.147ZM369.468,936.417C369.417,934.139 370.273,931.935 371.848,930.289C373.424,928.644 375.589,927.692 377.866,927.645L407.336,927.026C412.068,926.927 415.987,930.679 416.094,935.411L417.746,1008.5C417.797,1010.78 416.941,1012.99 415.365,1014.63C413.79,1016.28 411.625,1017.23 409.347,1017.28L379.878,1017.89C375.146,1017.99 371.227,1014.24 371.12,1009.51L369.468,936.417ZM503.74,880.052C543.292,878.113 576.978,908.65 578.918,948.202C580.857,987.755 550.32,1021.44 510.767,1023.38C471.215,1025.32 437.529,994.782 435.59,955.23C433.651,915.677 464.188,881.991 503.74,880.052ZM505.895,923.999C490.597,924.749 478.787,937.778 479.537,953.075C480.287,968.372 493.315,980.183 508.613,979.433C523.91,978.683 535.72,965.654 534.97,950.357C534.22,935.06 521.192,923.249 505.895,923.999ZM388.742,852.823C405.815,851.46 420.783,864.214 422.146,881.286C423.51,898.359 410.756,913.326 393.684,914.69C376.611,916.053 361.643,903.3 360.28,886.227C358.916,869.155 371.67,854.187 388.742,852.823Z"/>
                        </clipPath>
                        <g clip-path="url(#_clip1)">
                            <g transform="matrix(0.9988,-0.0489708,0.0489708,0.9988,-2812.2,149.059)">
                                <path d="M2935.88,978.657C2949.61,953.961 2980.68,948.898 2974.03,918.048C2972.29,909.96 2972.81,878.812 2980.79,861.735C2983.59,909.398 3013.27,901.23 3010.37,955.309C3040.99,933.981 3014.6,919.806 3039.96,873.524C3041.86,902.291 3073.02,911.302 3072.14,944.777C3089.64,932.14 3079.97,908.704 3098.33,882.769C3095.63,910.042 3132.22,945.634 3132.54,944.777C3174.33,834.946 3224.67,949.841 3230.46,963.819C3243.49,955.72 3228.36,932.03 3244.79,914.941C3245,944.574 3263.62,948.35 3263.77,968.717C3269.64,960.054 3290.01,946.626 3291.86,925.469C3310.37,942.766 3310.33,978.565 3310.49,978.657C3326.89,960.544 3314.2,943.94 3321.56,925.121C3326.16,939.415 3357.07,963.122 3357.07,963.122C3357.07,963.122 3374.6,930.731 3377.21,927.546C3377.34,927.389 3377.61,926.922 3377.65,927.121C3378.55,931.75 3380.72,954.005 3385.51,955.309C3386.56,955.595 3405.44,924.504 3413.79,918.048C3417.19,915.419 3448.21,898.4 3455.14,896.566C3457.19,896.024 3479.18,914.222 3479.06,914.941C3477.84,922.483 3474.5,929.548 3473.44,937.171C3471.26,952.977 3472.08,969.452 3472.86,985.312C3473.4,996.457 3474.18,1007.68 3474.18,1018.84C3474.18,1019.3 3474.84,1027.68 3473.91,1027.94C3462.2,1031.17 3433.25,1028.9 3420.01,1029.83C3383.44,1032.41 3346.9,1036.69 3310.49,1040.85C3220.78,1051.07 3129.67,1076.32 3038.96,1063C3006.2,1058.19 2973.07,1054.89 2940.57,1048.53C2935.28,1047.5 2911.19,1045.6 2907.53,1042.67C2906.54,1041.88 2906.5,1028.27 2906.47,1028.01C2905.33,1018.39 2904.16,1008.54 2902.48,998.996L2935.88,978.657Z" style="fill:rgb(255,96,52);"/>
                            </g>
                        </g>
                    </g>
                    <g transform="matrix(0.374771,0,0,0.374771,451.873,831.524)">
                        <path d="M301,756C324.18,756 343,774.82 343,798C343,821.18 324.18,840 301,840C277.82,840 259,821.18 259,798C259,774.82 277.82,756 301,756ZM519.598,505.258C556.525,510.654 582.124,545.016 576.727,581.943C571.33,618.87 536.969,644.468 500.042,639.071C463.115,633.675 437.516,599.313 442.913,562.386C448.31,525.459 482.671,499.861 519.598,505.258ZM443.499,678.373C445.658,664.895 458.333,655.72 471.81,657.878L529.004,667.039C542.481,669.198 551.657,681.873 549.498,695.35L540.411,752.085C526.327,828.548 470.472,894.623 412.696,922.553C406.583,925.376 399.578,925.559 393.326,923.06C387.074,920.561 382.125,915.6 379.643,909.341C373.869,892.752 366.767,870.771 361.598,854.827C357.842,844.05 361.957,832.102 371.553,825.922C402.802,805.63 428.754,770.434 434.412,735.107L443.499,678.373ZM620.298,820.338C618.685,811.149 623.914,802.131 632.691,798.968C688.432,779.192 670.805,762.718 633.099,717.39C571.332,643.137 600.816,572.784 728.192,548.67C738.405,546.707 748.314,553.266 750.499,563.434C752.106,570.616 753.877,578.855 755.382,585.858C757.278,594.685 752.763,603.64 744.539,607.365C706.294,623.387 705.039,644.341 748.633,688.618C822.09,763.226 764.531,849.671 643.916,856.67C634.207,857.235 625.614,850.436 623.93,840.857C622.761,834.351 621.445,826.862 620.298,820.338Z" style="fill:rgb(237,24,70);"/>
                        <clipPath id="_clip2">
                            <path d="M301,756C324.18,756 343,774.82 343,798C343,821.18 324.18,840 301,840C277.82,840 259,821.18 259,798C259,774.82 277.82,756 301,756ZM519.598,505.258C556.525,510.654 582.124,545.016 576.727,581.943C571.33,618.87 536.969,644.468 500.042,639.071C463.115,633.675 437.516,599.313 442.913,562.386C448.31,525.459 482.671,499.861 519.598,505.258ZM443.499,678.373C445.658,664.895 458.333,655.72 471.81,657.878L529.004,667.039C542.481,669.198 551.657,681.873 549.498,695.35L540.411,752.085C526.327,828.548 470.472,894.623 412.696,922.553C406.583,925.376 399.578,925.559 393.326,923.06C387.074,920.561 382.125,915.6 379.643,909.341C373.869,892.752 366.767,870.771 361.598,854.827C357.842,844.05 361.957,832.102 371.553,825.922C402.802,805.63 428.754,770.434 434.412,735.107L443.499,678.373ZM620.298,820.338C618.685,811.149 623.914,802.131 632.691,798.968C688.432,779.192 670.805,762.718 633.099,717.39C571.332,643.137 600.816,572.784 728.192,548.67C738.405,546.707 748.314,553.266 750.499,563.434C752.106,570.616 753.877,578.855 755.382,585.858C757.278,594.685 752.763,603.64 744.539,607.365C706.294,623.387 705.039,644.341 748.633,688.618C822.09,763.226 764.531,849.671 643.916,856.67C634.207,857.235 625.614,850.436 623.93,840.857C622.761,834.351 621.445,826.862 620.298,820.338Z"/>
                        </clipPath>
                        <g clip-path="url(#_clip2)">
                            <g transform="matrix(2.39095,-0.363369,0.269922,1.77607,-7677.57,270.104)">
                                <path d="M2935.88,978.657C2949.61,953.961 2980.68,948.898 2974.03,918.048C2972.29,909.96 2972.81,878.812 2980.79,861.735C2983.59,909.398 3013.27,901.23 3010.37,955.309C3040.99,933.981 3014.6,919.806 3039.96,873.524C3041.86,902.291 3073.02,911.302 3072.14,944.777C3089.64,932.14 3079.97,908.704 3098.33,882.769C3095.63,910.042 3132.22,945.634 3132.54,944.777C3174.33,834.946 3224.67,949.841 3230.46,963.819C3243.49,955.72 3228.36,932.03 3244.79,914.941C3245,944.574 3263.62,948.35 3263.77,968.717C3269.64,960.054 3290.01,946.626 3291.86,925.469C3310.37,942.766 3310.33,978.565 3310.49,978.657C3326.89,960.544 3314.2,943.94 3321.56,925.121C3326.16,939.415 3357.07,963.122 3357.07,963.122C3357.07,963.122 3374.6,930.731 3377.21,927.546C3377.34,927.389 3377.61,926.922 3377.65,927.121C3378.55,931.75 3380.72,954.005 3385.51,955.309C3386.56,955.595 3405.44,924.504 3413.79,918.048C3417.19,915.419 3448.21,898.4 3455.14,896.566C3457.19,896.024 3479.18,914.222 3479.06,914.941C3477.84,922.483 3474.5,929.548 3473.44,937.171C3471.26,952.977 3472.08,969.452 3472.86,985.312C3473.4,996.457 3474.18,1007.68 3474.18,1018.84C3474.18,1019.3 3474.84,1027.68 3473.91,1027.94C3462.2,1031.17 3433.25,1028.9 3420.01,1029.83C3383.44,1032.41 3346.9,1036.69 3310.49,1040.85C3220.78,1051.07 3129.67,1076.32 3038.96,1063C3006.2,1058.19 2973.07,1054.89 2940.57,1048.53C2935.28,1047.5 2911.19,1045.6 2907.53,1042.67C2906.54,1041.88 2906.5,1028.27 2906.47,1028.01C2905.33,1018.39 2904.16,1008.54 2902.48,998.996L2935.88,978.657Z" style="fill:rgb(255,96,52);"/>
                            </g>
                        </g>
                    </g>
                    <g transform="matrix(0.794251,-0.0713287,0.0713287,0.794251,171.905,1029.2)">
                        <path d="M30,31C30,30.448 30.448,30 31,30L105.321,30C125.026,30 140,45.974 140,65.679L140,69.607C140,71.816 138.209,73.607 136,73.607L119.214,73.607C118.11,73.607 117.214,72.712 117.214,71.607L117.214,65.679C117.214,59.11 111.89,53.786 105.321,53.786L54.786,53.786C54.233,53.786 53.786,54.233 53.786,54.786L53.786,136.536C53.786,137.088 53.337,137.538 52.785,137.515C40.113,136.991 30,126.551 30,113.75L30,31ZM74.607,77.571L113.25,77.571C128.576,77.571 141,89.995 141,105.321L141,113.75C141,126.551 130.887,136.991 118.215,137.515C117.663,137.538 117.214,137.088 117.214,136.536L117.214,105.321C117.214,103.132 115.439,101.357 113.25,101.357L97.393,101.357C84.592,101.357 74.152,91.245 73.628,78.572C73.605,78.02 74.055,77.571 74.607,77.571Z" style="fill:rgb(237,24,70);"/>
                    </g>
                    <g transform="matrix(0.999019,0.0442827,-0.0442827,0.999019,38.9054,-13.3474)">
                        <g transform="matrix(5.44429,0.236258,-0.236258,5.44429,-1679.53,-2265.14)">
                            <path d="M392.811,591.038C392.805,590.903 392.852,590.772 392.943,590.673C393.033,590.574 393.16,590.515 393.294,590.51C394.638,590.462 398.259,590.33 399.515,590.285C399.756,590.276 399.959,590.464 399.968,590.705C399.987,591.174 400.017,591.918 400.036,592.412C400.041,592.545 399.993,592.675 399.903,592.773C399.812,592.871 399.686,592.929 399.552,592.933C398.239,592.98 394.718,593.106 393.415,593.152C393.141,593.162 392.91,592.95 392.896,592.677C392.872,592.209 392.836,591.51 392.811,591.038ZM396.842,601.472C396.622,601.618 396.327,601.568 396.167,601.359C395.969,601.107 395.706,600.779 395.501,600.529C395.314,600.333 395.316,600.024 395.507,599.831C396.291,598.987 397.544,597.418 397.95,596.76C397.95,596.76 393.882,596.922 392.454,596.979C392.182,596.99 391.951,596.782 391.933,596.511C391.904,596.074 391.861,595.436 391.832,594.993C391.823,594.859 391.868,594.728 391.956,594.627C392.045,594.527 392.17,594.466 392.304,594.459C393.839,594.371 398.436,594.11 400.105,594.016C400.486,593.994 400.851,594.173 401.066,594.488C401.215,594.706 401.391,594.962 401.546,595.189C401.794,595.552 401.8,596.029 401.561,596.398C401.095,597.129 400.322,598.313 399.851,598.838C399.232,599.529 397.775,600.804 396.842,601.472Z" style="fill:rgb(237,24,70);fill-rule:nonzero;"/>
                        </g>
                        <g transform="matrix(1.04837,-0.101765,0.101765,1.04837,-87.8846,239.974)">
                            <g transform="matrix(5.17365,0,0,5.17365,-1720.21,-2256.37)">
                                <path d="M409.691,594.994C409.691,594.994 407.338,596.339 407.338,596.339C406.949,596.532 404.916,597.512 404.102,597.904C403.91,597.997 403.679,597.931 403.564,597.751C403.324,597.375 402.926,596.75 402.679,596.362C402.557,596.171 402.608,595.917 402.795,595.789C404.151,594.854 409.226,591.361 410.525,590.466C410.699,590.346 410.935,590.374 411.077,590.531C411.458,590.953 412.185,591.76 412.592,592.212C412.669,592.298 412.708,592.411 412.699,592.527C412.69,592.642 412.634,592.748 412.545,592.821C411.895,593.353 410.476,594.497 409.691,594.994Z" style="fill:rgb(237,24,70);fill-rule:nonzero;"/>
                            </g>
                            <g transform="matrix(0.86645,0,0,1.10372,-751.208,-85.572)">
                                <path d="M1331.44,824.607C1332.36,824.638 1333.09,825.24 1333.07,825.965C1332.98,830.496 1332.67,845.533 1332.57,850.033C1332.56,850.751 1331.83,851.331 1330.91,851.35C1327.75,851.413 1320.8,851.553 1317.52,851.618C1317.06,851.628 1316.61,851.488 1316.28,851.232C1315.95,850.975 1315.76,850.624 1315.77,850.259C1315.88,844.657 1316.3,824.094 1316.3,824.094C1316.3,824.094 1327.2,824.463 1331.44,824.607Z" style="fill:rgb(237,24,70);"/>
                            </g>
                        </g>
                        <g transform="matrix(1.04837,-0.101765,0.101765,1.04837,-88.6562,273.315)">
                            <g transform="matrix(5.17365,0,0,5.17365,-1721.05,-2275.58)">
                                <path d="M420.094,595.389C420.094,595.389 415.679,595.389 414.89,595.389C414.711,595.389 414.557,595.261 414.524,595.085C414.455,594.72 414.339,594.106 414.262,593.695C414.242,593.59 414.268,593.48 414.335,593.396C414.401,593.311 414.501,593.259 414.609,593.254C415.966,593.184 420.094,592.972 420.094,592.972L420.094,591.233C420.094,591.126 420.14,591.023 420.221,590.953C420.302,590.882 420.41,590.849 420.516,590.864C421.032,590.932 421.896,591.047 422.368,591.11C422.557,591.135 422.697,591.299 422.691,591.49C422.678,591.985 422.654,592.853 422.654,592.853C422.654,592.853 423.623,592.796 424.149,592.765C424.236,592.76 424.32,592.79 424.383,592.85C424.445,592.909 424.481,592.991 424.481,593.077C424.481,593.592 424.481,594.573 424.481,595.076C424.481,595.249 424.341,595.389 424.168,595.389C423.633,595.389 422.602,595.389 422.602,595.389C422.602,595.389 422.509,599.078 422.461,601.001C422.454,601.287 422.323,601.556 422.102,601.739C421.882,601.923 421.593,602.001 421.31,601.956C420.344,601.799 419.013,601.584 418.41,601.487C418.226,601.457 418.09,601.298 418.09,601.111L418.09,600.352C418.09,600.162 418.23,600 418.419,599.974C418.988,599.896 420.094,599.744 420.094,599.744L420.094,595.389Z" style="fill:rgb(237,24,70);fill-rule:nonzero;"/>
                            </g>
                            <g transform="matrix(1,0,0,1,-925.165,-4)">
                                <path d="M1370.49,805.452C1370.49,805.452 1356.11,820.319 1351.6,824.985C1350.82,825.792 1350.7,827.035 1351.33,827.97C1352.23,829.327 1353.53,831.286 1354.53,832.792C1354.91,833.356 1355.5,833.734 1356.17,833.834C1356.84,833.933 1357.52,833.744 1358.05,833.313C1363.74,828.614 1379.37,815.72 1379.37,815.72L1370.49,805.452Z" style="fill:rgb(237,24,70);"/>
                            </g>
                        </g>
                        <g transform="matrix(5.42392,-0.526497,0.526497,5.42392,-2125.59,-1923.95)">
                            <path d="M431.162,595.34C431.162,595.719 431.024,596.045 430.746,596.318C430.469,596.59 430.142,596.724 429.767,596.724C429.392,596.724 429.064,596.591 428.783,596.32C428.499,596.047 428.359,595.719 428.359,595.34C428.359,594.952 428.5,594.621 428.783,594.348C429.064,594.078 429.392,593.945 429.767,593.945C430.142,593.945 430.469,594.079 430.746,594.351C431.023,594.623 431.162,594.953 431.162,595.34ZM428.961,601.247C428.863,601.156 428.807,601.029 428.806,600.896C428.805,600.762 428.859,600.634 428.956,600.543C429.36,600.122 430.033,599.317 430.694,598.095C431.301,596.971 431.723,595.485 431.917,594.715C431.949,594.584 432.035,594.472 432.154,594.407C432.272,594.343 432.412,594.33 432.54,594.374C432.923,594.503 433.445,594.681 433.8,594.802C434.03,594.88 434.166,595.116 434.118,595.353C433.965,596.049 433.594,597.517 432.906,598.956C432.113,600.615 430.836,601.589 430.253,601.97C430.071,602.077 429.84,602.053 429.685,601.91C429.477,601.723 429.19,601.458 428.961,601.247ZM428.002,596.264C428.002,596.648 427.866,596.981 427.591,597.261C427.315,597.543 426.979,597.683 426.583,597.683C426.199,597.683 425.864,597.545 425.579,597.266C425.293,596.984 425.151,596.65 425.151,596.264C425.151,595.869 425.294,595.531 425.579,595.25C425.864,594.97 426.199,594.832 426.583,594.832C426.979,594.832 427.315,594.973 427.591,595.254C427.865,595.534 428.002,595.87 428.002,596.264Z" style="fill:rgb(237,24,70);fill-rule:nonzero;"/>
                        </g>
                        <g transform="matrix(1.04837,-0.101765,0.101765,1.04837,-89.452,267.287)">
                            <g transform="matrix(5.17365,0,0,5.17365,-1721.56,-2275.65)">
                                <path d="M438.82,590.89C438.96,590.891 439.073,591.004 439.073,591.144C439.073,592.611 439.073,600.009 439.073,601.453C439.073,601.59 438.965,601.703 438.828,601.708C438.312,601.728 437.118,601.774 436.59,601.795C436.522,601.797 436.455,601.773 436.406,601.726C436.356,601.679 436.327,601.614 436.326,601.546C436.294,600.059 436.134,592.628 436.102,591.135C436.101,591.066 436.127,591 436.175,590.951C436.224,590.902 436.29,590.875 436.358,590.875C436.925,590.879 438.261,590.886 438.82,590.89Z" style="fill:rgb(237,24,70);fill-rule:nonzero;"/>
                            </g>
                            <g transform="matrix(0.995796,-0.0915966,-0.0915966,-0.995796,-719.625,1754.45)">
                                <path d="M1371.39,811.076C1370.98,810.526 1370.36,810.164 1369.68,810.07C1369,809.976 1368.31,810.156 1367.76,810.572C1362.46,814.604 1348.78,825 1348.78,825C1348.78,825 1353.15,830.508 1355.66,833.671C1356.1,834.232 1356.76,834.583 1357.47,834.641C1358.18,834.699 1358.89,834.458 1359.42,833.976C1363.25,830.493 1371.43,823.046 1375.01,819.786C1376,818.888 1376.14,817.388 1375.34,816.322C1374.19,814.797 1372.57,812.65 1371.39,811.076Z" style="fill:rgb(237,24,70);"/>
                            </g>
                        </g>
                    </g>
                    <g transform="matrix(0.733961,0.15233,-0.144694,0.697172,-2837.69,-467.777)">
                        <path d="M4993.5,927.638L4993.5,942.182C4993.5,957.604 4999.11,972.44 5009.17,983.647L5014,989.022C5014.96,990.097 5015.5,991.521 5015.5,993L5015.5,1014.28L5004.5,1014.28L5004.5,995.304L5001.18,991.602C4989.18,978.246 4982.5,960.563 4982.5,942.182L4982.5,883.016C4982.5,871.525 4991.35,862.21 5002.26,862.21C5006.57,862.21 5010.56,863.66 5013.8,866.122C5017.39,859.599 5024.09,855.21 5031.76,855.21L5031.77,855.21C5035.6,855.21 5039.2,856.308 5042.28,858.222C5043.28,854.384 5045.22,850.847 5047.94,847.984C5052.06,843.647 5057.64,841.21 5063.47,841.21L5065.53,841.21C5071.36,841.21 5076.94,843.647 5081.07,847.984C5081.39,848.324 5081.7,848.673 5082,849.031C5082.3,848.673 5082.61,848.324 5082.94,847.984C5087.06,843.647 5092.64,841.21 5098.47,841.21L5099.53,841.21C5105.36,841.21 5110.94,843.647 5115.07,847.984C5119.19,852.322 5121.5,858.205 5121.5,864.339C5121.5,880.886 5121.5,904.43 5121.5,912.302C5123.16,913.305 5124.69,914.539 5126.07,915.984C5130.19,920.322 5132.5,926.205 5132.5,932.339L5132.5,954.02C5132.5,964.821 5128.45,975.187 5121.24,982.869L5109.5,995.378L5109.5,1014.28L5098.5,1014.28L5098.5,993C5098.5,991.476 5099.07,990.014 5100.09,988.93L5113.42,974.729C5118.6,969.214 5121.5,961.773 5121.5,954.02L5121.5,932.339C5121.5,929.276 5120.34,926.338 5118.29,924.173C5116.23,922.007 5113.44,920.79 5110.53,920.79L5063.5,920.79C5063.64,933.198 5073.24,943.21 5085.06,943.21L5104,943.21L5104,954.79L5085.06,954.79C5084.78,954.79 5084.49,954.786 5084.21,954.779L5074.75,964.24C5069.71,969.272 5066.86,976.258 5066.86,983.564L5066.86,993L5055.86,993L5055.86,983.564C5055.86,973.083 5059.95,963.062 5067.17,955.843L5071.39,951.629C5060.23,946.189 5052.5,934.302 5052.5,920.512L5052.5,920.508C5052.5,919.602 5052.6,918.72 5052.79,917.875C5051.6,917.178 5050.47,916.361 5049.41,915.433C5045.76,921.649 5039.22,925.79 5031.77,925.79L5031.76,925.79C5026.74,925.79 5022.13,923.91 5018.55,920.781C5014.98,926.223 5009.02,929.79 5002.26,929.79C4999.12,929.79 4996.14,929.016 4993.5,927.638ZM4993.5,883.016L4993.5,908.984C4993.5,914.079 4997.42,918.21 5002.26,918.21C5007.1,918.21 5011.03,914.079 5011.03,908.984L5011.03,883.016C5011.03,877.921 5007.1,873.79 5002.26,873.79C4997.42,873.79 4993.5,877.921 4993.5,883.016ZM5041.5,877.039C5041.5,871.379 5037.14,866.79 5031.77,866.79L5031.76,866.79C5026.39,866.79 5022.03,871.379 5022.03,877.039L5022.03,903.961C5022.03,909.621 5026.39,914.21 5031.76,914.21L5031.77,914.21C5037.14,914.21 5041.5,909.621 5041.5,903.961L5041.5,877.039ZM5076.5,864.339C5076.5,861.276 5075.34,858.339 5073.29,856.173C5071.23,854.007 5068.44,852.79 5065.53,852.79L5063.47,852.79C5060.56,852.79 5057.77,854.007 5055.71,856.173C5053.66,858.339 5052.5,861.276 5052.5,864.339L5052.5,897.661C5052.5,900.724 5053.66,903.661 5055.71,905.827C5057.77,907.993 5060.56,909.21 5063.47,909.21L5065.53,909.21C5068.44,909.21 5071.23,907.993 5073.29,905.827C5075.34,903.661 5076.5,900.724 5076.5,897.661L5076.5,864.339ZM5110.5,909.21C5110.5,899.376 5110.5,879.082 5110.5,864.339C5110.5,861.276 5109.34,858.339 5107.29,856.173C5105.23,854.007 5102.44,852.79 5099.53,852.79L5098.47,852.79C5095.56,852.79 5092.77,854.007 5090.71,856.173C5088.66,858.339 5087.5,861.276 5087.5,864.339L5087.5,897.661C5087.5,900.724 5088.66,903.661 5090.71,905.827C5092.77,907.993 5095.56,909.21 5098.47,909.21L5110.5,909.21Z" style="fill:rgb(237,24,70);"/>
                    </g>
                </g>
            </g>
        </g>
    </g>
</svg>
