<svg width="395" height="108" xmlns="http://www.w3.org/2000/svg"><g fill="#ED1846" fill-rule="nonzero"><path d="M213.618 44.78v-.181c0-6.51-1.995-11.212-5.799-15.01-4.439-4.43-11.597-7.233-22.832-7.233H154v63.288h21.202V67.562h4.53l11.959 18.082h24.19l-14.767-21.516c7.7-3.708 12.504-10.127 12.504-19.349zm-21.111 1.536c0 3.888-3.081 6.148-8.155 6.148h-9.15V40.076h9.242c4.892 0 8.063 1.99 8.063 6.06v.18zm34.6 39.328h21.199V22.356h-21.199v63.288zM295.323 21c-19.569 0-34.701 14.646-34.701 33v.181c0 18.353 14.95 32.819 34.52 32.819 19.571 0 34.7-14.646 34.7-33v-.18c0-18.354-14.948-32.82-34.519-32.82zm13.139 33.181c0 7.415-5.074 14.104-13.139 14.103-8.153 0-13.319-6.78-13.319-14.284v-.18c0-7.414 5.075-14.105 13.138-14.105 8.155 0 13.32 6.782 13.32 14.285v.181zM335.9 22.356V40.26h18.665v45.384h21.199V40.259h18.665V22.356H335.9zM0 1.647C0 .737.737 0 1.647 0h73.674C95.026 0 111 16.028 111 35.8v6.308c0 .91-.737 1.647-1.647 1.647H88.861a1.647 1.647 0 0 1-1.647-1.648V35.8c0-6.59-5.324-11.933-11.893-11.933H25.433c-.91 0-1.647.738-1.647 1.647v80.238c0 .909-.74 1.653-1.648 1.59C9.77 106.492 0 96.157 0 83.531V1.647z"/><path d="M45.254 47.732c-.91 0-1.653.74-1.591 1.648.843 12.412 11.145 22.218 23.73 22.218H83.25a3.971 3.971 0 0 1 3.964 3.978v30.175c0 .909.74 1.653 1.648 1.59C101.23 106.492 111 96.157 111 83.531v-7.955c0-15.378-12.424-27.844-27.75-27.844H45.254z"/></g></svg>